<?xml version="1.0" encoding="UTF-8"?>
<svg version="1.1" xmlns="http://www.w3.org/2000/svg" width="101" height="96">
<path d="M0 0 C2.32115168 0.01612759 4.6405694 0.00002452 6.96166992 -0.01904297 C18.38116717 -0.03432971 31.18545199 0.43998521 41.2565918 6.39111328 C42.6940918 9.07861328 42.6940918 9.07861328 43.2565918 11.39111328 C44.5559668 11.53548828 45.8553418 11.67986328 47.1940918 11.82861328 C51.1315918 12.26611328 51.1315918 12.26611328 52.2565918 13.39111328 C52.34328612 14.87983188 52.36362673 16.37255828 52.35424805 17.86376953 C52.34941406 19.21245117 52.34941406 19.21245117 52.34448242 20.58837891 C52.33191406 22.00666992 52.33191406 22.00666992 52.3190918 23.45361328 C52.31458008 24.40300781 52.31006836 25.35240234 52.30541992 26.33056641 C52.2935929 28.68414393 52.27711205 31.03759805 52.2565918 33.39111328 C49.6165918 33.39111328 46.9765918 33.39111328 44.2565918 33.39111328 C44.24779243 34.31739532 44.24779243 34.31739532 44.23881531 35.26239014 C44.17490836 41.68646011 44.09049558 48.11002787 43.99414062 54.53369141 C43.96087503 56.93141053 43.93284825 59.32920828 43.91015625 61.72705078 C43.87664099 65.17270427 43.82432525 68.61763623 43.76831055 72.06298828 C43.76192062 73.1360321 43.7555307 74.20907593 43.74894714 75.31463623 C43.72915298 76.3153717 43.70935883 77.31610718 43.68896484 78.34716797 C43.67786179 79.22653015 43.66675873 80.10589233 43.65531921 81.01190186 C43.1750589 83.8776211 42.24361382 85.29618776 40.2565918 87.39111328 C39.5965918 87.39111328 38.9365918 87.39111328 38.2565918 87.39111328 C38.2772168 88.69048828 38.2978418 89.98986328 38.3190918 91.32861328 C38.34058634 92.68276961 38.32807378 94.03867411 38.2565918 95.39111328 C37.2565918 96.39111328 37.2565918 96.39111328 34.7878418 96.52392578 C33.28737305 96.52005859 33.28737305 96.52005859 31.7565918 96.51611328 C30.7562793 96.51869141 29.7559668 96.52126953 28.7253418 96.52392578 C26.2565918 96.39111328 26.2565918 96.39111328 25.2565918 95.39111328 C25.2565918 93.41111328 25.2565918 91.43111328 25.2565918 89.39111328 C9.7465918 89.39111328 -5.7634082 89.39111328 -21.7434082 89.39111328 C-21.7434082 91.70111328 -21.7434082 94.01111328 -21.7434082 96.39111328 C-25.7034082 96.39111328 -29.6634082 96.39111328 -33.7434082 96.39111328 C-33.7434082 93.42111328 -33.7434082 90.45111328 -33.7434082 87.39111328 C-35.0634082 86.73111328 -36.3834082 86.07111328 -37.7434082 85.39111328 C-39.88578164 82.17755313 -40.00506071 81.26064264 -40.06225586 77.55249023 C-40.08212555 76.57169998 -40.10199524 75.59090973 -40.12246704 74.58039856 C-40.13401825 73.52406723 -40.14556946 72.4677359 -40.1574707 71.37939453 C-40.17683685 70.29603317 -40.196203 69.21267181 -40.21615601 68.09648132 C-40.27599165 64.63227236 -40.3223535 61.16803023 -40.3684082 57.70361328 C-40.40658428 55.35659349 -40.44563579 53.00958776 -40.4855957 50.66259766 C-40.58169645 44.90556094 -40.66673234 39.14843969 -40.7434082 33.39111328 C-43.3834082 33.39111328 -46.0234082 33.39111328 -48.7434082 33.39111328 C-48.7434082 26.79111328 -48.7434082 20.19111328 -48.7434082 13.39111328 C-45.7734082 12.40111328 -42.8034082 11.41111328 -39.7434082 10.39111328 C-39.4134082 9.40111328 -39.0834082 8.41111328 -38.7434082 7.39111328 C-27.37375393 0.11453454 -13.09273469 -0.10785017 0 0 Z " fill="#CF6060" transform="translate(48.743408203125,-0.39111328125)"/>
<path d="M0 0 C8.96192395 -0.0462815 17.92380695 -0.0818478 26.8858242 -0.10362434 C31.04697253 -0.11407446 35.20803926 -0.12825592 39.36914062 -0.15087891 C43.38266429 -0.17256371 47.39610933 -0.18455937 51.40968704 -0.18975449 C52.94314436 -0.19345811 54.47659724 -0.20069011 56.01002121 -0.21146011 C58.15309801 -0.22591729 60.29584736 -0.2279804 62.43896484 -0.22705078 C64.27096939 -0.23371262 64.27096939 -0.23371262 66.13998413 -0.24050903 C69 0 69 0 71 2 C71.1995697 4.55750453 71.27986826 7.00438141 71.265625 9.5625 C71.26753845 10.30959229 71.2694519 11.05668457 71.27142334 11.82641602 C71.27278498 13.40674171 71.26909 14.98707858 71.26074219 16.56738281 C71.250042 18.99048922 71.26063779 21.41285423 71.2734375 23.8359375 C71.2721159 25.36979331 71.2695535 26.90364865 71.265625 28.4375 C71.26967346 29.16461182 71.27372192 29.89172363 71.27789307 30.64086914 C71.22992361 35.77007639 71.22992361 35.77007639 69 38 C57.64105436 42.08981748 45.93817941 42.38788132 34 42.375 C32.92768631 42.3774472 32.92768631 42.3774472 31.83370972 42.37994385 C20.14698148 42.37693107 9.98892073 40.98149302 -1 37 C-1.0246826 32.05208706 -1.04285166 27.1042098 -1.05493164 22.15625 C-1.05996653 20.47232438 -1.06679481 18.78840314 -1.07543945 17.10449219 C-1.08754196 14.68683797 -1.09323668 12.26924144 -1.09765625 9.8515625 C-1.10281754 9.0963028 -1.10797882 8.34104309 -1.11329651 7.56289673 C-1.11387171 2.22774341 -1.11387171 2.22774341 0 0 Z " fill="#F6EAEA" transform="translate(16,19)"/>
<path d="M0 0 C1.16781006 0.00523682 2.33562012 0.01047363 3.53881836 0.01586914 C4.79887695 0.0190918 6.05893555 0.02231445 7.35717773 0.02563477 C8.6976732 0.03399136 10.03816799 0.04245632 11.37866211 0.05102539 C12.72306153 0.05603879 14.06746271 0.06060197 15.41186523 0.06469727 C18.71334151 0.07653051 22.01473014 0.09301568 25.31616211 0.11352539 C25.64616211 1.76352539 25.97616211 3.41352539 26.31616211 5.11352539 C16.08616211 5.11352539 5.85616211 5.11352539 -4.68383789 5.11352539 C-3.44185384 0.1455892 -3.44185384 0.1455892 0 0 Z " fill="#F3E1E1" transform="translate(39.683837890625,77.886474609375)"/>
<path d="M0 0 C11.55 0 23.1 0 35 0 C35 1.32 35 2.64 35 4 C23.45 4 11.9 4 0 4 C0 2.68 0 1.36 0 0 Z " fill="#F6E9E9" transform="translate(33,8)"/>
<path d="M0 0 C2 2 2 2 2.0625 4.4375 C1 7 1 7 -2.0625 8.8125 C-6.10625573 10.30583718 -9.72808901 10.22483742 -14 10 C-13.27167744 5.64898211 -11.23604834 3.90992828 -7.9140625 1.203125 C-5.1556695 -0.53072203 -3.16220651 -0.58831749 0 0 Z " fill="#F4E2E2" transform="translate(85,64)"/>
<path d="M0 0 C4.44150841 -0.66622626 6.81608783 0.2296316 10.375 2.75 C12.4609375 4.296875 12.4609375 4.296875 14 6 C14 7.32 14 8.64 14 10 C8.158256 10.35050464 4.1468192 10.16727335 -1 7 C-0.67 4.69 -0.34 2.38 0 0 Z " fill="#F4E3E3" transform="translate(16,64)"/>
</svg>
