<?xml version="1.0" encoding="UTF-8"?>
<svg version="1.1" xmlns="http://www.w3.org/2000/svg" width="106" height="133">
<path d="M0 0 C1.73830078 0.05027344 1.73830078 0.05027344 3.51171875 0.1015625 C6.3125 0.375 6.3125 0.375 7.3125 1.375 C8.31395282 15.90668743 7.6951323 30.22029461 4.3125 44.375 C4.3125 45.035 4.3125 45.695 4.3125 46.375 C4.80000732 46.81191162 5.28751465 47.24882324 5.78979492 47.69897461 C7.81592656 49.92911629 7.68620972 51.21309136 7.67578125 54.19140625 C7.67481445 55.58456055 7.67481445 55.58456055 7.67382812 57.00585938 C7.65771484 57.97330078 7.64160156 58.94074219 7.625 59.9375 C7.62822266 60.90880859 7.63144531 61.88011719 7.63476562 62.88085938 C7.57952009 70.10797991 7.57952009 70.10797991 5.3125 72.375 C1.6875 72.5 1.6875 72.5 -1.6875 72.375 C-1.67861755 72.93796783 -1.66973511 73.50093567 -1.6605835 74.08096313 C-1.5719193 79.95344871 -1.5116869 85.82574336 -1.46777344 91.69873047 C-1.44768893 93.88891324 -1.42041583 96.07904259 -1.38574219 98.26904297 C-1.33708591 101.42168376 -1.31449922 104.57361404 -1.296875 107.7265625 C-1.27622986 108.70178864 -1.25558472 109.67701477 -1.23431396 110.68179321 C-1.23235477 116.65099895 -1.91208413 119.73029281 -5.6875 124.375 C-6.55676171 126.86321895 -6.55676171 126.86321895 -6.9375 129.25 C-7.185 130.61125 -7.4325 131.9725 -7.6875 133.375 C-13.2975 133.375 -18.9075 133.375 -24.6875 133.375 C-25.1825 130.9 -25.1825 130.9 -25.6875 128.375 C-39.2175 128.375 -52.7475 128.375 -66.6875 128.375 C-67.0175 130.025 -67.3475 131.675 -67.6875 133.375 C-70.50006281 133.40184312 -73.31237241 133.42176188 -76.125 133.4375 C-76.92744141 133.44587891 -77.72988281 133.45425781 -78.55664062 133.46289062 C-80.60045221 133.4715143 -82.64433902 133.4272815 -84.6875 133.375 C-86.51882306 131.54367694 -85.97797035 129.0230529 -86.11328125 126.578125 C-86.53423185 124.18666532 -86.53423185 124.18666532 -88.69897461 122.41040039 C-91.64817085 117.90857635 -91.18660296 113.87175623 -91.078125 108.60546875 C-91.07246521 107.56932938 -91.06680542 106.53319 -91.06097412 105.46565247 C-91.03862666 102.16412692 -90.98843178 98.86369619 -90.9375 95.5625 C-90.91743296 93.32097924 -90.89918255 91.07944143 -90.8828125 88.83789062 C-90.83876733 83.3498884 -90.77187118 77.86252243 -90.6875 72.375 C-91.821875 72.395625 -92.95625 72.41625 -94.125 72.4375 C-97.6875 72.375 -97.6875 72.375 -98.6875 71.375 C-98.99508516 67.59149045 -98.965877 63.79447812 -99 60 C-99.02900391 58.93265625 -99.05800781 57.8653125 -99.08789062 56.765625 C-99.10045898 55.23035156 -99.10045898 55.23035156 -99.11328125 53.6640625 C-99.12786377 52.72256348 -99.14244629 51.78106445 -99.1574707 50.81103516 C-98.6875 48.375 -98.6875 48.375 -96.78369141 46.60864258 C-94.8035321 45.44328677 -92.83576579 44.39984343 -90.75 43.4375 C-88.19469356 42.21356895 -86.55382407 41.25246373 -84.4375 39.3125 C-74.33246208 32.19304146 -59.11003572 33.13799425 -47.25 33.125 C-46.53329132 33.12366058 -45.81658264 33.12232117 -45.07815552 33.12094116 C-31.80533853 33.12633563 -19.96182842 33.95851638 -7.6875 39.375 C-7.3575 39.375 -7.0275 39.375 -6.6875 39.375 C-6.86925781 38.20312134 -6.86925781 38.20312134 -7.0546875 37.00756836 C-7.60436955 33.44335595 -8.14600305 29.87796473 -8.6875 26.3125 C-8.87828125 25.08337891 -9.0690625 23.85425781 -9.265625 22.58789062 C-9.44609375 21.39228516 -9.6265625 20.19667969 -9.8125 18.96484375 C-9.98007813 17.87034912 -10.14765625 16.77585449 -10.3203125 15.64819336 C-11.33828721 6.57373397 -11.33828721 6.57373397 -9.10546875 2.4609375 C-5.92378986 -0.2838388 -4.14633715 -0.17643988 0 0 Z " fill="#CF6060" transform="translate(98.6875,-0.375)"/>
<path d="M0 0 C1.00511375 -0.0076664 1.00511375 -0.0076664 2.03053284 -0.01548767 C4.25026323 -0.02941263 6.4696842 -0.02842497 8.68945312 -0.02612305 C10.22880164 -0.03000805 11.76814908 -0.03434232 13.30749512 -0.03910828 C16.53559849 -0.04657647 19.7635925 -0.04627467 22.99169922 -0.04101562 C27.13484494 -0.03521646 31.27754428 -0.05215948 35.42061615 -0.0753603 C38.59985993 -0.09006855 41.77899544 -0.09097341 44.95826721 -0.08785057 C46.48613877 -0.08836513 48.01401617 -0.09362807 49.54185486 -0.10366249 C51.67533674 -0.11595557 53.80793918 -0.10927967 55.94140625 -0.09765625 C57.15671021 -0.09828568 58.37201416 -0.0989151 59.62414551 -0.0995636 C60.56350952 0.0239296 61.50287354 0.14742279 62.47070312 0.2746582 C64.86313686 3.8633088 64.8098477 6.52877565 64.84179688 10.6809082 C64.85082535 11.40201782 64.85985382 12.12312744 64.86915588 12.86608887 C64.88364827 14.38911796 64.89254262 15.91220918 64.89624023 17.43530273 C64.9081636 19.76692972 64.95737241 22.09593151 65.0078125 24.42700195 C65.01727411 25.90745779 65.0245104 27.38792987 65.02929688 28.8684082 C65.04882919 29.5653479 65.06836151 30.2622876 65.08848572 30.98034668 C65.07006836 32.95239258 65.07006836 32.95239258 64.47070312 36.2746582 C56.01790852 43.59656698 40.90823213 42.75582897 30.28491211 42.66577148 C28.03828019 42.64969453 25.7934528 42.66571548 23.546875 42.68481445 C13.04305956 42.70003717 0.82853951 42.59026691 -8.52929688 37.2746582 C-8.57866197 32.32675643 -8.61499956 27.37899737 -8.63916016 22.4309082 C-8.64923004 20.74696354 -8.66288675 19.06303641 -8.68017578 17.37915039 C-8.70438113 14.9614632 -8.71576984 12.54400677 -8.72460938 10.1262207 C-8.73493195 9.370961 -8.74525452 8.61570129 -8.75588989 7.83755493 C-8.75629006 5.9817184 -8.65152404 4.1264654 -8.52929688 2.2746582 C-5.71942564 -0.53521304 -3.93650612 0.01492386 0 0 Z " fill="#F6EBEB" transform="translate(24.529296875,54.725341796875)"/>
<path d="M0 0 C1.73830078 0.05027344 1.73830078 0.05027344 3.51171875 0.1015625 C6.3125 0.375 6.3125 0.375 7.3125 1.375 C8.31395282 15.90668743 7.6951323 30.22029461 4.3125 44.375 C4.3125 45.035 4.3125 45.695 4.3125 46.375 C4.80000732 46.81191162 5.28751465 47.24882324 5.78979492 47.69897461 C7.81592656 49.92911629 7.68620972 51.21309136 7.67578125 54.19140625 C7.67481445 55.58456055 7.67481445 55.58456055 7.67382812 57.00585938 C7.65771484 57.97330078 7.64160156 58.94074219 7.625 59.9375 C7.62822266 60.90880859 7.63144531 61.88011719 7.63476562 62.88085938 C7.57952009 70.10797991 7.57952009 70.10797991 5.3125 72.375 C1.6875 72.5 1.6875 72.5 -1.6875 72.375 C-1.67861755 72.93796783 -1.66973511 73.50093567 -1.6605835 74.08096313 C-1.5719193 79.95344871 -1.5116869 85.82574336 -1.46777344 91.69873047 C-1.44768893 93.88891324 -1.42041583 96.07904259 -1.38574219 98.26904297 C-1.33708591 101.42168376 -1.31449922 104.57361404 -1.296875 107.7265625 C-1.27622986 108.70178864 -1.25558472 109.67701477 -1.23431396 110.68179321 C-1.23235477 116.65099895 -1.91208413 119.73029281 -5.6875 124.375 C-6.55676171 126.86321895 -6.55676171 126.86321895 -6.9375 129.25 C-7.185 130.61125 -7.4325 131.9725 -7.6875 133.375 C-13.2975 133.375 -18.9075 133.375 -24.6875 133.375 C-25.1825 130.9 -25.1825 130.9 -25.6875 128.375 C-39.2175 128.375 -52.7475 128.375 -66.6875 128.375 C-67.0175 130.025 -67.3475 131.675 -67.6875 133.375 C-70.50006281 133.40184312 -73.31237241 133.42176188 -76.125 133.4375 C-76.92744141 133.44587891 -77.72988281 133.45425781 -78.55664062 133.46289062 C-80.60045221 133.4715143 -82.64433902 133.4272815 -84.6875 133.375 C-86.51882306 131.54367694 -85.97797035 129.0230529 -86.11328125 126.578125 C-86.53423185 124.18666532 -86.53423185 124.18666532 -88.69897461 122.41040039 C-91.64817085 117.90857635 -91.18660296 113.87175623 -91.078125 108.60546875 C-91.07246521 107.56932938 -91.06680542 106.53319 -91.06097412 105.46565247 C-91.03862666 102.16412692 -90.98843178 98.86369619 -90.9375 95.5625 C-90.91743296 93.32097924 -90.89918255 91.07944143 -90.8828125 88.83789062 C-90.83876733 83.3498884 -90.77187118 77.86252243 -90.6875 72.375 C-91.821875 72.395625 -92.95625 72.41625 -94.125 72.4375 C-97.6875 72.375 -97.6875 72.375 -98.6875 71.375 C-98.99508516 67.59149045 -98.965877 63.79447812 -99 60 C-99.02900391 58.93265625 -99.05800781 57.8653125 -99.08789062 56.765625 C-99.10045898 55.23035156 -99.10045898 55.23035156 -99.11328125 53.6640625 C-99.12786377 52.72256348 -99.14244629 51.78106445 -99.1574707 50.81103516 C-98.6875 48.375 -98.6875 48.375 -96.78369141 46.60864258 C-94.8035321 45.44328677 -92.83576579 44.39984343 -90.75 43.4375 C-88.19469356 42.21356895 -86.55382407 41.25246373 -84.4375 39.3125 C-74.33246208 32.19304146 -59.11003572 33.13799425 -47.25 33.125 C-46.53329132 33.12366058 -45.81658264 33.12232117 -45.07815552 33.12094116 C-31.80533853 33.12633563 -19.96182842 33.95851638 -7.6875 39.375 C-7.3575 39.375 -7.0275 39.375 -6.6875 39.375 C-6.86925781 38.20312134 -6.86925781 38.20312134 -7.0546875 37.00756836 C-7.60436955 33.44335595 -8.14600305 29.87796473 -8.6875 26.3125 C-8.87828125 25.08337891 -9.0690625 23.85425781 -9.265625 22.58789062 C-9.44609375 21.39228516 -9.6265625 20.19667969 -9.8125 18.96484375 C-9.98007813 17.87034912 -10.14765625 16.77585449 -10.3203125 15.64819336 C-11.33828721 6.57373397 -11.33828721 6.57373397 -9.10546875 2.4609375 C-5.92378986 -0.2838388 -4.14633715 -0.17643988 0 0 Z M-84.6875 43.375 C-84.99816406 44.05304687 -85.30882813 44.73109375 -85.62890625 45.4296875 C-86.6875 47.375 -86.6875 47.375 -88.81640625 48.16796875 C-89.61949219 48.29816406 -90.42257813 48.42835937 -91.25 48.5625 C-94.25841754 48.87992822 -94.25841754 48.87992822 -96.6875 50.375 C-96.77401611 51.79070123 -96.79454904 53.210595 -96.78515625 54.62890625 C-96.78193359 55.48291016 -96.77871094 56.33691406 -96.77539062 57.21679688 C-96.76701172 58.11462891 -96.75863281 59.01246094 -96.75 59.9375 C-96.74548828 60.83919922 -96.74097656 61.74089844 -96.73632812 62.66992188 C-96.72450225 64.90501314 -96.7080222 67.13997437 -96.6875 69.375 C-94.3775 69.375 -92.0675 69.375 -89.6875 69.375 C-89.6875 63.435 -89.6875 57.495 -89.6875 51.375 C-89.0275 51.375 -88.3675 51.375 -87.6875 51.375 C-87.69273682 52.19137939 -87.69797363 53.00775879 -87.70336914 53.84887695 C-87.79030165 69.68930039 -87.77643219 85.53035744 -87.42404175 101.36776733 C-87.39143363 102.91016982 -87.36383907 104.45268672 -87.34133911 105.99526978 C-87.3082463 108.16019612 -87.25628616 110.32387134 -87.19921875 112.48828125 C-87.17303467 113.72360596 -87.14685059 114.95893066 -87.11987305 116.23168945 C-86.65708677 119.59610124 -85.8884387 120.87522154 -83.6875 123.375 C-83.2109375 125.48046875 -83.2109375 125.48046875 -83.0625 127.5625 C-83.1159032 131.15809459 -83.1159032 131.15809459 -81.6875 132.375 C-79.83462498 132.44726502 -77.97916122 132.4588122 -76.125 132.4375 C-75.11308594 132.42847656 -74.10117188 132.41945313 -73.05859375 132.41015625 C-72.27613281 132.39855469 -71.49367188 132.38695312 -70.6875 132.375 C-70.6875 129.735 -70.6875 127.095 -70.6875 124.375 C-54.8475 124.375 -39.0075 124.375 -22.6875 124.375 C-22.6875 126.685 -22.6875 128.995 -22.6875 131.375 C-21.62771067 132.66112676 -21.62771067 132.66112676 -19.18359375 132.47265625 C-18.17425781 132.46105469 -17.16492188 132.44945312 -16.125 132.4375 C-14.60712891 132.42396484 -14.60712891 132.42396484 -13.05859375 132.41015625 C-12.27613281 132.39855469 -11.49367188 132.38695312 -10.6875 132.375 C-10.66171875 131.77171875 -10.6359375 131.1684375 -10.609375 130.546875 C-10.55265625 129.74765625 -10.4959375 128.9484375 -10.4375 128.125 C-10.39109375 127.33609375 -10.3446875 126.5471875 -10.296875 125.734375 C-9.6875 123.375 -9.6875 123.375 -7.67779541 121.6116333 C-5.07050967 118.68164508 -5.20184806 117.11018916 -5.23339844 113.22949219 C-5.23385162 111.36801544 -5.23385162 111.36801544 -5.23431396 109.46893311 C-5.25473885 108.11990718 -5.27560281 106.77088783 -5.296875 105.421875 C-5.30433898 104.03754494 -5.31003117 102.65320428 -5.31402588 101.26885986 C-5.32927026 97.63210683 -5.36854048 93.99599675 -5.4128418 90.35949707 C-5.45382108 86.64600318 -5.47204249 82.93240501 -5.4921875 79.21875 C-5.53503699 71.93720746 -5.60327246 64.65619395 -5.6875 57.375 C-5.0275 57.705 -4.3675 58.035 -3.6875 58.375 C-3.2734375 60.87890625 -3.2734375 60.87890625 -3.0625 63.9375 C-2.95035156 65.45537109 -2.95035156 65.45537109 -2.8359375 67.00390625 C-2.78695312 67.78636719 -2.73796875 68.56882813 -2.6875 69.375 C-0.3775 69.375 1.9325 69.375 4.3125 69.375 C4.3125 63.105 4.3125 56.835 4.3125 50.375 C1.3425 49.385 -1.6275 48.395 -4.6875 47.375 C-5.285625 46.570625 -5.88375 45.76625 -6.5 44.9375 C-11.9046552 38.60633248 -23.45311952 37.24345146 -31.44384766 36.52001953 C-59.12289046 34.41939013 -59.12289046 34.41939013 -84.6875 43.375 Z " fill="#FCF6F6" transform="translate(98.6875,-0.375)"/>
<path d="M0 0 C0.33 0 0.66 0 1 0 C1 6.27 1 12.54 1 19 C3.64 19 6.28 19 9 19 C9 13.06 9 7.12 9 1 C9.66 1 10.32 1 11 1 C11.01839432 1.84302673 11.03678864 2.68605347 11.05574036 3.55462646 C11.23168104 11.50049463 11.42148795 19.44588447 11.62686634 27.39104843 C11.73196415 31.4757341 11.8317011 35.56040402 11.91918945 39.64550781 C12.00382303 43.5880991 12.10253459 47.53010956 12.21100426 51.47211456 C12.249908 52.97587211 12.28374295 54.47976965 12.31241798 55.98375702 C12.35346218 58.09100364 12.41253318 60.19703155 12.47583008 62.30371094 C12.50469803 63.50284119 12.53356598 64.70197144 12.56330872 65.93743896 C13.03483949 69.24433294 13.84166019 70.53062711 16 73 C16.6408587 75.68084404 16.7698714 78.23845677 17 81 C20.3 81.33 23.6 81.66 27 82 C27 82.33 27 82.66 27 83 C24.85423363 83.02685938 22.70837355 83.04633088 20.5625 83.0625 C19.36753906 83.07410156 18.17257813 83.08570313 16.94140625 83.09765625 C14 83 14 83 13 82 C12.83909964 80.06919565 12.6812828 78.13766155 12.57421875 76.203125 C12.15326815 73.81166532 12.15326815 73.81166532 9.98852539 72.03540039 C7.03932915 67.53357635 7.50089704 63.49675623 7.609375 58.23046875 C7.61503479 57.19432938 7.62069458 56.15819 7.62652588 55.09065247 C7.64887334 51.78912692 7.69906822 48.48869619 7.75 45.1875 C7.77006704 42.94597924 7.78831745 40.70444143 7.8046875 38.46289062 C7.84873267 32.9748884 7.91562882 27.48752243 8 22 C6.2984375 22.0309375 6.2984375 22.0309375 4.5625 22.0625 C1 22 1 22 0 21 C-0.08685603 19.43827255 -0.10702219 17.87270656 -0.09765625 16.30859375 C-0.09443359 15.36435547 -0.09121094 14.42011719 -0.08789062 13.44726562 C-0.07951172 12.45404297 -0.07113281 11.46082031 -0.0625 10.4375 C-0.05798828 9.44041016 -0.05347656 8.44332031 -0.04882812 7.41601562 C-0.03700007 4.94395151 -0.02051849 2.47200482 0 0 Z " fill="#FBF3F3" transform="translate(0,50)"/>
<path d="M0 0 C1.7325 0.1546875 1.7325 0.1546875 3.5 0.3125 C8.39317894 7.6522684 3.95959122 21.29910894 2.5625 29.625 C2.39282715 30.65786133 2.2231543 31.69072266 2.04833984 32.75488281 C1.79431396 34.20072754 1.79431396 34.20072754 1.53515625 35.67578125 C1.30904663 36.97962769 1.30904663 36.97962769 1.07836914 38.30981445 C0.88750732 38.97070068 0.69664551 39.63158691 0.5 40.3125 C-0.49 40.8075 -0.49 40.8075 -1.5 41.3125 C-2.18368266 37.25267963 -2.84367683 33.18932558 -3.5 29.125 C-3.69078125 27.99384766 -3.8815625 26.86269531 -4.078125 25.69726562 C-5.31108281 17.96926221 -6.31419749 10.13942234 -5.5 2.3125 C-3.5 0.3125 -3.5 0.3125 0 0 Z " fill="#D93126" transform="translate(98.5,1.6875)"/>
<path d="M0 0 C3 0.1875 3 0.1875 5 1.1875 C5 7.4575 5 13.7275 5 20.1875 C2.69 20.1875 0.38 20.1875 -2 20.1875 C-2.07347656 19.01380859 -2.07347656 19.01380859 -2.1484375 17.81640625 C-2.22320312 16.80449219 -2.29796875 15.79257813 -2.375 14.75 C-2.44460937 13.74066406 -2.51421875 12.73132813 -2.5859375 11.69140625 C-2.72257812 10.86511719 -2.85921875 10.03882813 -3 9.1875 C-3.66 8.8575 -4.32 8.5275 -5 8.1875 C-5.125 5.3125 -5.125 5.3125 -5 2.1875 C-3 0.1875 -3 0.1875 0 0 Z " fill="#CF5E5E" transform="translate(98,48.8125)"/>
<path d="M0 0 C1.26650391 -0.01224609 2.53300781 -0.02449219 3.83789062 -0.03710938 C5.04509766 -0.03904297 6.25230469 -0.04097656 7.49609375 -0.04296875 C9.1675647 -0.04913208 9.1675647 -0.04913208 10.87280273 -0.05541992 C13.5625 0.1875 13.5625 0.1875 15.5625 2.1875 C15.5625 3.1775 15.5625 4.1675 15.5625 5.1875 C5.3325 5.1875 -4.8975 5.1875 -15.4375 5.1875 C-13.50223532 -2.55355874 -7.01311815 0.00355815 0 0 Z " fill="#F3E0E0" transform="translate(52.4375,113.8125)"/>
<path d="M0 0 C11.55 0 23.1 0 35 0 C35 1.32 35 2.64 35 4 C23.45 4 11.9 4 0 4 C0 2.68 0 1.36 0 0 Z " fill="#F6E9E9" transform="translate(35,44)"/>
<path d="M0 0 C2.60315732 1.73717713 4.98187302 3.59974246 7 6 C7 6.99 7 7.98 7 9 C2.30385696 10.4675447 -1.48940494 9.64641591 -6 8 C-8.0625 6.6875 -8.0625 6.6875 -9 5 C-8.8125 2.375 -8.8125 2.375 -8 0 C-4.9403051 -1.52984745 -3.27514313 -0.9269273 0 0 Z " fill="#F4E2E2" transform="translate(25,101)"/>
<path d="M0 0 C2.1875 0.5 2.1875 0.5 4.1875 2.5 C4.5625 4.9375 4.5625 4.9375 4.1875 7.5 C1.91345519 9.75269228 0.59896445 10.45689967 -2.609375 10.79296875 C-3.58390625 10.75816406 -4.5584375 10.72335938 -5.5625 10.6875 C-6.54734375 10.66042969 -7.5321875 10.63335937 -8.546875 10.60546875 C-9.29453125 10.57066406 -10.0421875 10.53585938 -10.8125 10.5 C-10.08945779 6.12369188 -7.99584438 4.41551206 -4.66015625 1.703125 C-2.8125 0.5 -2.8125 0.5 0 0 Z " fill="#F5E5E5" transform="translate(83.8125,99.5)"/>
<path d="M0 0 C3 0.1875 3 0.1875 5 1.1875 C5.125 4.0625 5.125 4.0625 5 7.1875 C3 9.1875 3 9.1875 0 9.375 C-3 9.1875 -3 9.1875 -5 8.1875 C-5.125 5.3125 -5.125 5.3125 -5 2.1875 C-3 0.1875 -3 0.1875 0 0 Z " fill="#D7271D" transform="translate(98,48.8125)"/>
</svg>
